<svg width="35" height="36" viewBox="0 0 35 36" fill="none" xmlns="http://www.w3.org/2000/svg">
<path d="M31.0625 8.15625H6.125C3.95369 8.15625 2.1875 9.92244 2.1875 12.0938V23.9062C2.1875 24.6299 2.77637 25.2188 3.5 25.2188H6.16C6.3735 26.7001 7.64794 27.8438 9.1875 27.8438C10.7271 27.8438 12.0015 26.7001 12.215 25.2188H22.785C22.9985 26.7001 24.2729 27.8438 25.8125 27.8438C27.3521 27.8438 28.6265 26.7001 28.84 25.2188H31.5C32.2236 25.2188 32.8125 24.6299 32.8125 23.9062V9.90625C32.8125 8.94112 32.0276 8.15625 31.0625 8.15625ZM21.4375 17.7812V12.0938H26.25V17.7812H21.4375ZM15.75 17.7812V12.0938H20.5625V17.7812H15.75ZM10.0625 17.7812V12.0938H14.875V17.7812H10.0625ZM3.0625 12.0938H9.1875V18.0503L7.68031 19.7224H3.0625V12.0938ZM27.125 12.0938H31.9375V17.7812H27.125V12.0938ZM6.125 9.03125H31.0625C31.5451 9.03125 31.9375 9.42369 31.9375 9.90625V11.2188H3.19156C3.56913 9.95569 4.74031 9.03125 6.125 9.03125ZM9.1875 26.9688C7.98131 26.9688 7 25.9874 7 24.7812C7 23.5751 7.98131 22.5938 9.1875 22.5938C10.3937 22.5938 11.375 23.5751 11.375 24.7812C11.375 25.9874 10.3937 26.9688 9.1875 26.9688ZM25.8125 26.9688C24.6063 26.9688 23.625 25.9874 23.625 24.7812C23.625 23.5751 24.6063 22.5938 25.8125 22.5938C27.0187 22.5938 28 23.5751 28 24.7812C28 25.9874 27.0187 26.9688 25.8125 26.9688ZM31.5 24.3438H28.84C28.6265 22.8624 27.3521 21.7188 25.8125 21.7188C24.2729 21.7188 22.9985 22.8624 22.785 24.3438H12.215C12.0015 22.8624 10.7271 21.7188 9.1875 21.7188C7.64794 21.7188 6.3735 22.8624 6.16 24.3438H3.5C3.38397 24.3438 3.27269 24.2977 3.19064 24.2156C3.10859 24.1336 3.0625 24.0223 3.0625 23.9062V22.5938H3.9375C4.05353 22.5938 4.16481 22.5477 4.24686 22.4656C4.32891 22.3836 4.375 22.2723 4.375 22.1562C4.375 22.0402 4.32891 21.9289 4.24686 21.8469C4.16481 21.7648 4.05353 21.7188 3.9375 21.7188H3.0625V20.5974H7.875C7.99881 20.5974 8.11694 20.5449 8.20006 20.4531L9.81969 18.6562H31.9375V19.9688H30.625C30.509 19.9688 30.3977 20.0148 30.3156 20.0969C30.2336 20.1789 30.1875 20.2902 30.1875 20.4062C30.1875 20.5223 30.2336 20.6336 30.3156 20.7156C30.3977 20.7977 30.509 20.8438 30.625 20.8438H31.9375V21.7188H30.625C30.509 21.7188 30.3977 21.7648 30.3156 21.8469C30.2336 21.9289 30.1875 22.0402 30.1875 22.1562C30.1875 22.2723 30.2336 22.3836 30.3156 22.4656C30.3977 22.5477 30.509 22.5938 30.625 22.5938H31.9375V23.9062C31.9375 24.0223 31.8914 24.1336 31.8094 24.2156C31.7273 24.2977 31.616 24.3438 31.5 24.3438Z" fill="#2B6128"/>
<path d="M25.8116 23.2295C24.9558 23.2295 24.2598 23.9251 24.2598 24.7813C24.2598 25.6375 24.9554 26.3331 25.8116 26.3331C26.6678 26.3331 27.3634 25.6375 27.3634 24.7813C27.3634 23.9251 26.6678 23.2295 25.8116 23.2295ZM25.8116 25.4581C25.4384 25.4581 25.1348 25.1545 25.1348 24.7813C25.1348 24.4081 25.4384 24.1045 25.8116 24.1045C26.1848 24.1045 26.4884 24.4081 26.4884 24.7813C26.4884 25.1545 26.1848 25.4581 25.8116 25.4581ZM9.18658 23.2295C8.33083 23.2295 7.63477 23.9251 7.63477 24.7813C7.63477 25.6375 8.33039 26.3331 9.18658 26.3331C10.0428 26.3331 10.7384 25.6375 10.7384 24.7813C10.7384 23.9251 10.0428 23.2295 9.18658 23.2295ZM9.18658 25.4581C8.81339 25.4581 8.50977 25.1545 8.50977 24.7813C8.50977 24.4081 8.81339 24.1045 9.18658 24.1045C9.55977 24.1045 9.86339 24.4081 9.86339 24.7813C9.86339 25.1545 9.55977 25.4581 9.18658 25.4581Z" fill="#2B6128"/>
</svg>
