<svg width="27" height="27" viewBox="0 0 27 27" fill="none" xmlns="http://www.w3.org/2000/svg">
<path d="M23.9625 5.90625H4.725C3.04999 5.90625 1.6875 7.26874 1.6875 8.94375V18.0563C1.6875 18.6145 2.14177 19.0688 2.7 19.0688H4.752C4.9167 20.2115 5.89984 21.0938 7.0875 21.0938C8.27516 21.0938 9.2583 20.2115 9.423 19.0688H17.577C17.7417 20.2115 18.7248 21.0938 19.9125 21.0938C21.1002 21.0938 22.0833 20.2115 22.248 19.0688H24.3C24.8582 19.0688 25.3125 18.6145 25.3125 18.0563V7.25625C25.3125 6.51173 24.707 5.90625 23.9625 5.90625ZM16.5375 13.3313V8.94375H20.25V13.3313H16.5375ZM12.15 13.3313V8.94375H15.8625V13.3313H12.15ZM7.7625 13.3313V8.94375H11.475V13.3313H7.7625ZM2.3625 8.94375H7.0875V13.5388L5.92481 14.8287H2.3625V8.94375ZM20.925 8.94375H24.6375V13.3313H20.925V8.94375ZM4.725 6.58125H23.9625C24.3348 6.58125 24.6375 6.88399 24.6375 7.25625V8.26875H2.46206C2.75332 7.29439 3.65681 6.58125 4.725 6.58125ZM7.0875 20.4187C6.15701 20.4187 5.4 19.6617 5.4 18.7312C5.4 17.8008 6.15701 17.0437 7.0875 17.0437C8.01799 17.0437 8.775 17.8008 8.775 18.7312C8.775 19.6617 8.01799 20.4187 7.0875 20.4187ZM19.9125 20.4187C18.982 20.4187 18.225 19.6617 18.225 18.7312C18.225 17.8008 18.982 17.0437 19.9125 17.0437C20.843 17.0437 21.6 17.8008 21.6 18.7312C21.6 19.6617 20.843 20.4187 19.9125 20.4187ZM24.3 18.3938H22.248C22.0833 17.251 21.1002 16.3688 19.9125 16.3688C18.7248 16.3688 17.7417 17.251 17.577 18.3938H9.423C9.2583 17.251 8.27516 16.3688 7.0875 16.3688C5.89984 16.3688 4.9167 17.251 4.752 18.3938H2.7C2.61049 18.3938 2.52465 18.3582 2.46135 18.2949C2.39806 18.2316 2.3625 18.1458 2.3625 18.0563V17.0437H3.0375C3.12701 17.0437 3.21285 17.0082 3.27615 16.9449C3.33944 16.8816 3.375 16.7958 3.375 16.7063C3.375 16.6167 3.33944 16.5309 3.27615 16.4676C3.21285 16.4043 3.12701 16.3688 3.0375 16.3688H2.3625V15.5037H6.075C6.17051 15.5037 6.26164 15.4632 6.32576 15.3924L7.57519 14.0063H24.6375V15.0188H23.625C23.5355 15.0188 23.4496 15.0543 23.3864 15.1176C23.3231 15.1809 23.2875 15.2667 23.2875 15.3562C23.2875 15.4458 23.3231 15.5316 23.3864 15.5949C23.4496 15.6582 23.5355 15.6938 23.625 15.6938H24.6375V16.3688H23.625C23.5355 16.3688 23.4496 16.4043 23.3864 16.4676C23.3231 16.5309 23.2875 16.6167 23.2875 16.7063C23.2875 16.7958 23.3231 16.8816 23.3864 16.9449C23.4496 17.0082 23.5355 17.0437 23.625 17.0437H24.6375V18.0563C24.6375 18.1458 24.6019 18.2316 24.5386 18.2949C24.4754 18.3582 24.3895 18.3938 24.3 18.3938Z" fill="white"/>
<path d="M19.9127 17.5342C19.2526 17.5342 18.7156 18.0708 18.7156 18.7313C18.7156 19.3918 19.2523 19.9284 19.9127 19.9284C20.5732 19.9284 21.1099 19.3918 21.1099 18.7313C21.1099 18.0708 20.5732 17.5342 19.9127 17.5342ZM19.9127 19.2534C19.6249 19.2534 19.3906 19.0192 19.3906 18.7313C19.3906 18.4434 19.6249 18.2092 19.9127 18.2092C20.2006 18.2092 20.4349 18.4434 20.4349 18.7313C20.4349 19.0192 20.2006 19.2534 19.9127 19.2534ZM7.08774 17.5342C6.42759 17.5342 5.89062 18.0708 5.89062 18.7313C5.89062 19.3918 6.42725 19.9284 7.08774 19.9284C7.74823 19.9284 8.28485 19.3918 8.28485 18.7313C8.28485 18.0708 7.74823 17.5342 7.08774 17.5342ZM7.08774 19.2534C6.79985 19.2534 6.56563 19.0192 6.56563 18.7313C6.56563 18.4434 6.79985 18.2092 7.08774 18.2092C7.37563 18.2092 7.60985 18.4434 7.60985 18.7313C7.60985 19.0192 7.37563 19.2534 7.08774 19.2534Z" fill="white"/>
</svg>
