<svg width="35" height="35" viewBox="0 0 35 35" fill="none" xmlns="http://www.w3.org/2000/svg">
<g clip-path="url(#clip0_3272_2452)">
<path d="M28.0444 22.2542L24.3403 21.8313C23.9047 21.7802 23.4632 21.8284 23.049 21.9724C22.6347 22.1163 22.2585 22.3523 21.9486 22.6626L19.2653 25.3459C15.1253 23.2404 11.7603 19.8754 9.65484 15.7355L12.3528 13.0376C12.9798 12.4105 13.2861 11.5355 13.184 10.6459L12.7611 6.9709C12.6784 6.25949 12.337 5.60333 11.8018 5.12734C11.2667 4.65136 10.5752 4.3888 9.859 4.38965H7.33609C5.68817 4.38965 4.31734 5.76048 4.41942 7.4084C5.19234 19.8626 15.1528 29.8084 27.5923 30.5813C29.2403 30.6834 30.6111 29.3126 30.6111 27.6646V25.1417C30.6257 23.6688 29.5173 22.4292 28.0444 22.2542Z" fill="#2B6128"/>
</g>
<defs>
<clipPath id="clip0_3272_2452">
<rect width="35" height="35" fill="white"/>
</clipPath>
</defs>
</svg>
