<svg width="35" height="35" viewBox="0 0 35 35" fill="none" xmlns="http://www.w3.org/2000/svg">
<path opacity="0.4" d="M17.5059 2.9165C9.45321 2.9165 2.92323 9.44217 2.91604 17.4967C2.91142 19.8453 3.4766 22.1599 4.5631 24.242C4.66685 24.4365 4.75763 24.6311 4.86138 24.8127C5.09401 25.2611 5.14061 25.7831 4.99107 26.2655C4.57499 27.3757 4.22848 28.5108 3.95357 29.6641C3.95357 30.2349 4.12216 30.5721 4.73169 30.5721C5.83938 30.3236 6.93079 30.0073 7.99981 29.6252C8.46429 29.5039 8.95549 29.5358 9.40043 29.716C9.80246 29.9236 10.1656 30.2219 10.5676 30.4035H10.6973C15.2187 32.784 20.6557 32.6251 25.0305 29.9848C29.4053 27.3444 32.0804 22.6074 32.0827 17.4967C32.0756 9.44724 25.5535 2.92366 17.5059 2.9165Z" fill="#2B6128"/>
<path d="M10.5878 19.7382C9.57929 19.7382 8.76172 18.9206 8.76172 17.9121C8.76172 16.9036 9.57929 16.086 10.5878 16.086C11.5963 16.086 12.4139 16.9036 12.4139 17.9121C12.4139 18.9206 11.5963 19.7382 10.5878 19.7382ZM17.182 19.7382C16.6967 19.7416 16.2302 19.5503 15.887 19.2071C15.5438 18.8639 15.3525 18.3974 15.3559 17.9121C15.3559 17.1735 15.8008 16.5076 16.4832 16.225C17.1656 15.9423 17.951 16.0986 18.4732 16.6208C18.9955 17.1431 19.1517 17.9285 18.8691 18.6109C18.5864 19.2933 17.9206 19.7382 17.182 19.7382ZM23.7635 19.7382C22.755 19.7382 21.9374 18.9206 21.9374 17.9121C21.9374 16.9036 22.755 16.086 23.7635 16.086C24.7721 16.086 25.5896 16.9036 25.5896 17.9121C25.5896 18.9206 24.7721 19.7382 23.7635 19.7382Z" fill="#2B6128"/>
</svg>
