<svg width="25" height="25" viewBox="0 0 25 25" fill="none" xmlns="http://www.w3.org/2000/svg">
<path d="M7.5 20C6.11875 20 5.0125 21.1187 5.0125 22.5C5.0125 23.8813 6.11875 25 7.5 25C8.88125 25 10 23.8813 10 22.5C10 21.1187 8.88125 20 7.5 20ZM0 0V2.5H2.5L6.99375 11.9812L5.30625 15.0437C5.1125 15.4062 5 15.8125 5 16.25C5 17.6313 6.11875 18.75 7.5 18.75H22.5V16.25H8.03125C7.85625 16.25 7.71875 16.1125 7.71875 15.9375C7.71875 15.8813 7.73125 15.8313 7.75625 15.7875L8.875 13.75H18.1875C19.125 13.75 19.9437 13.2313 20.375 12.4625L24.8438 4.35C24.9438 4.175 25 3.96875 25 3.75C25 3.41848 24.8683 3.10054 24.6339 2.86612C24.3995 2.6317 24.0815 2.5 23.75 2.5H5.26875L4.08125 0H0ZM20 20C18.6187 20 17.5125 21.1187 17.5125 22.5C17.5125 23.8813 18.6187 25 20 25C21.3813 25 22.5 23.8813 22.5 22.5C22.5 21.1187 21.3813 20 20 20Z" fill="#2B6128"/>
</svg>
