<svg width="25" height="25" viewBox="0 0 25 25" fill="none" xmlns="http://www.w3.org/2000/svg">
<path d="M9.53812 21.637V18.4425C9.5381 17.63 10.2005 16.9698 11.0212 16.9643H14.0276C14.8522 16.9643 15.5207 17.6261 15.5207 18.4425V21.647C15.5205 22.3368 16.0767 22.9007 16.7733 22.9168H18.7776C20.7755 22.9168 22.3952 21.3134 22.3952 19.3354V10.2479C22.3845 9.46977 22.0155 8.73907 21.3931 8.26374L14.5386 2.79735C13.3378 1.84554 11.6308 1.84554 10.43 2.79735L3.60563 8.27366C2.98087 8.74706 2.61121 9.47898 2.60352 10.2578V19.3354C2.60352 21.3134 4.22318 22.9168 6.22113 22.9168H8.22535C8.9393 22.9168 9.51807 22.3438 9.51807 21.637" stroke="white" stroke-width="1.5" stroke-linecap="round" stroke-linejoin="round"/>
</svg>
