<svg width="31" height="31" viewBox="0 0 31 31" fill="none" xmlns="http://www.w3.org/2000/svg">
<path d="M11.3549 28.2915V23.8191C11.3549 22.6816 12.2823 21.7573 13.4313 21.7497H17.6402C18.7947 21.7497 19.7306 22.6762 19.7306 23.8191V28.3054C19.7303 29.2712 20.5089 30.0605 21.4842 30.0832H24.2902C27.0873 30.0832 29.3548 27.8383 29.3548 25.0692V12.3467C29.3399 11.2573 28.8232 10.2343 27.9519 9.56884L18.3557 1.9159C16.6745 0.583371 14.2847 0.583371 12.6036 1.9159L3.04944 9.58273C2.17478 10.2455 1.65726 11.2702 1.64648 12.3606V25.0692C1.64648 27.8383 3.91401 30.0832 6.71115 30.0832H9.51705C10.5166 30.0832 11.3269 29.281 11.3269 28.2915" stroke="#2B6128" stroke-width="1.5" stroke-linecap="round" stroke-linejoin="round"/>
</svg>
