<svg width="25" height="25" viewBox="0 0 25 25" fill="none" xmlns="http://www.w3.org/2000/svg">
<path d="M6.52539 8.15453C6.46387 8.15453 6.4021 8.13133 6.35474 8.08495C6.2583 7.99071 6.25659 7.83617 6.35083 7.73973C6.74683 7.3347 6.74683 6.67552 6.35083 6.27025C6.06787 5.98094 5.91211 5.59886 5.91211 5.19408C5.91211 4.78954 6.06787 4.40721 6.35083 4.1179C6.44507 4.02147 6.59961 4.01976 6.69604 4.114C6.79248 4.20824 6.79419 4.36278 6.69995 4.45921C6.30395 4.86424 6.30395 5.52342 6.69995 5.9287C6.98291 6.218 7.13867 6.60008 7.13867 7.00487C7.13867 7.40941 6.98291 7.79173 6.69995 8.08104C6.6521 8.13011 6.58862 8.15453 6.52539 8.15453ZM18.4731 8.15453C18.4116 8.15453 18.3499 8.13133 18.3025 8.08495C18.2061 7.99071 18.2043 7.83617 18.2986 7.73973C18.6946 7.3347 18.6946 6.67552 18.2986 6.27025C18.0156 5.98094 17.8599 5.59886 17.8599 5.19408C17.8599 4.78954 18.0156 4.40721 18.2986 4.1179C18.3928 4.02147 18.5474 4.01976 18.6438 4.114C18.7402 4.20824 18.7419 4.36278 18.6477 4.45921C18.2517 4.86424 18.2517 5.52342 18.6477 5.9287C18.9307 6.218 19.0864 6.60008 19.0864 7.00487C19.0864 7.40941 18.9307 7.79173 18.6477 8.08104C18.5999 8.13011 18.5366 8.15453 18.4731 8.15453ZM12.4993 5.73778C12.4377 5.73778 12.3762 5.71458 12.3286 5.6682C12.2322 5.57396 12.2305 5.41942 12.3247 5.32298C12.6274 5.01341 12.6274 4.50951 12.3247 4.19994C12.0874 3.95726 11.9565 3.63646 11.9565 3.2971C11.9565 2.95775 12.0872 2.63695 12.3247 2.39427C12.4189 2.29784 12.5735 2.29613 12.6699 2.39037C12.7664 2.4846 12.7681 2.63915 12.6738 2.73558C12.3711 3.04515 12.3711 3.54906 12.6738 3.85863C12.9111 4.1013 13.042 4.4221 13.042 4.76146C13.042 5.10082 12.9114 5.42162 12.6738 5.66429C12.626 5.71336 12.5627 5.73778 12.4993 5.73778Z" fill="white"/>
<path d="M13.7689 6.51538C13.7689 6.59302 13.7615 6.67212 13.7469 6.75024L13.5911 7.58374C13.5694 7.7002 13.4673 7.78296 13.3514 7.78296C13.3423 7.78296 13.3333 7.78247 13.3243 7.78149C12.7818 7.72119 12.2193 7.72119 11.6768 7.78149C11.5499 7.79565 11.4334 7.70923 11.41 7.58374L11.2542 6.75049C11.1846 6.37842 11.2835 5.99829 11.5252 5.70728C11.7669 5.41626 12.1224 5.24951 12.5005 5.24951C13.2 5.24951 13.7689 5.81738 13.7689 6.51538Z" fill="white"/>
<path d="M20.1687 15.4039H4.83276C4.698 15.4039 4.58862 15.2945 4.58862 15.1597C4.58862 13.1995 5.31079 11.3189 6.62207 9.86407C7.92358 8.42023 9.69971 7.50812 11.6233 7.2962C12.2012 7.23199 12.8 7.23199 13.3782 7.2962C15.3015 7.50836 17.0776 8.42023 18.3792 9.86407C19.6904 11.3189 20.4126 13.1995 20.4126 15.1597C20.4128 15.2945 20.3035 15.4039 20.1687 15.4039ZM5.08081 14.9156H19.9207C19.802 11.233 17.0061 8.18756 13.3245 7.78156C12.7815 7.72125 12.2195 7.72125 11.677 7.78156C7.99536 8.18756 5.19971 11.233 5.08081 14.9156ZM6.46851 17.0987C6.36035 16.982 6.21484 16.9175 6.05908 16.9175H4.70825C4.39429 16.9175 4.13867 17.1846 4.13867 17.5132V22.0836C4.13867 22.4119 4.39429 22.6793 4.70825 22.6793H6.05908C6.37329 22.6793 6.62866 22.4119 6.62866 22.0836L6.62891 17.5132C6.62891 17.3577 6.57202 17.2105 6.46851 17.0987ZM5.64624 18.0645C5.64624 18.2093 5.52856 18.327 5.38379 18.327C5.23901 18.327 5.12134 18.2093 5.12134 18.0645C5.12134 17.92 5.23901 17.8021 5.38379 17.8021C5.52856 17.8021 5.64624 17.92 5.64624 18.0645Z" fill="white"/>
<path d="M12.5754 22.0688H6.38477C6.32007 22.0688 6.25781 22.0432 6.21216 21.9973C6.16626 21.9514 6.14062 21.8894 6.14062 21.8247L6.14087 18.1626C6.14087 18.0278 6.25024 17.9185 6.38501 17.9185H6.8457C7.20972 17.9185 7.55981 17.7649 7.8064 17.4968C8.14502 17.1287 8.62622 16.9175 9.12647 16.9175H12.7017C13.2537 16.9175 13.7026 17.3665 13.7026 17.9185C13.7026 18.4705 13.2537 18.9194 12.7017 18.9194H10.6509C10.5229 18.9194 10.4189 19.0234 10.4189 19.1514C10.4189 19.2793 10.5229 19.3833 10.6509 19.3833H13.4006C13.9143 19.3833 14.4248 19.2542 14.8767 19.0095L17.2983 17.6995C17.7651 17.447 18.3413 17.5881 18.6384 18.0278C18.9553 18.4966 18.832 19.1365 18.3635 19.4539L16.1018 20.9866C15.0571 21.6946 13.8376 22.0688 12.5754 22.0688ZM6.62915 21.5806H12.5754C13.7397 21.5806 14.8645 21.2354 15.8284 20.5823L18.0901 19.0496C18.3359 18.8831 18.4006 18.5474 18.2344 18.3013C18.0784 18.0706 17.7761 17.9963 17.531 18.1289L15.1094 19.439C14.5864 19.7219 13.9956 19.8713 13.4009 19.8713H10.6506C10.2534 19.8713 9.93042 19.5483 9.93042 19.1511C9.93042 18.7539 10.2534 18.4309 10.6506 18.4309H12.7014C12.9841 18.4309 13.2141 18.2009 13.2141 17.9182C13.2141 17.6355 12.9841 17.4055 12.7014 17.4055H9.12622C8.76221 17.4055 8.41211 17.5593 8.16553 17.8271C7.8269 18.1953 7.3457 18.4065 6.84546 18.4065H6.62891L6.62915 21.5806Z" fill="white"/>
<path d="M19.8729 17.4058H5.12682C5.0565 17.4058 4.98985 17.3755 4.94347 17.3228L3.18565 15.3208C3.12242 15.2488 3.10729 15.1463 3.14659 15.0591C3.18614 14.9717 3.27306 14.9156 3.369 14.9156H21.6307C21.7267 14.9156 21.8136 14.9717 21.8531 15.0591C21.8927 15.1465 21.8775 15.2488 21.8141 15.3208L20.0563 17.3228C20.0099 17.3755 19.9432 17.4058 19.8729 17.4058ZM5.23741 16.9175H19.7626L21.0917 15.4039H3.90831L5.23741 16.9175ZM7.14977 13.4131C7.12145 13.4131 7.09264 13.4082 7.06456 13.3977C6.9381 13.3506 6.87389 13.2102 6.92101 13.0838C7.49034 11.5547 8.67931 10.3128 10.1835 9.67656C10.3077 9.62407 10.4508 9.68217 10.5035 9.80619C10.556 9.93046 10.4979 10.0735 10.3739 10.1263C8.99303 10.7102 7.90147 11.8504 7.37901 13.2539C7.3419 13.3523 7.24889 13.4131 7.14977 13.4131Z" fill="white"/>
</svg>
