<svg width="35" height="35" viewBox="0 0 35 35" fill="none" xmlns="http://www.w3.org/2000/svg">
<path d="M9.13594 11.4162C9.0498 11.4162 8.96333 11.3838 8.89702 11.3188C8.76201 11.1869 8.75962 10.9705 8.89155 10.8355C9.44595 10.2685 9.44595 9.34563 8.89155 8.77825C8.49541 8.37322 8.27734 7.83831 8.27734 7.27161C8.27734 6.70525 8.49541 6.17 8.89155 5.76497C9.02349 5.62996 9.23984 5.62757 9.37485 5.7595C9.50986 5.89143 9.51226 6.10779 9.38032 6.2428C8.82593 6.80984 8.82593 7.73269 9.38032 8.30008C9.77646 8.70511 9.99453 9.24002 9.99453 9.80672C9.99453 10.3731 9.77646 10.9083 9.38032 11.3134C9.31333 11.3821 9.22446 11.4162 9.13594 11.4162ZM25.8628 11.4162C25.7767 11.4162 25.6902 11.3838 25.6239 11.3188C25.4889 11.1869 25.4865 10.9705 25.6184 10.8355C26.1728 10.2685 26.1728 9.34563 25.6184 8.77825C25.2223 8.37322 25.0042 7.83831 25.0042 7.27161C25.0042 6.70525 25.2223 6.17 25.6184 5.76497C25.7503 5.62996 25.9667 5.62757 26.1017 5.7595C26.2367 5.89143 26.2391 6.10779 26.1072 6.2428C25.5528 6.80984 25.5528 7.73269 26.1072 8.30008C26.5033 8.70511 26.7214 9.24002 26.7214 9.80672C26.7214 10.3731 26.5033 10.9083 26.1072 11.3134C26.0402 11.3821 25.9517 11.4162 25.8628 11.4162ZM17.4994 8.03279C17.4132 8.03279 17.3271 8.00032 17.2604 7.93538C17.1254 7.80345 17.123 7.58709 17.255 7.45208C17.6788 7.01868 17.6788 6.31321 17.255 5.87981C16.9228 5.54007 16.7396 5.09095 16.7396 4.61585C16.7396 4.14075 16.9224 3.69163 17.255 3.35188C17.3869 3.21687 17.6033 3.21448 17.7383 3.34641C17.8733 3.47835 17.8757 3.69471 17.7438 3.82972C17.3199 4.26311 17.3199 4.96858 17.7438 5.40198C18.076 5.74173 18.2592 6.19085 18.2592 6.66595C18.2592 7.14104 18.0763 7.59016 17.7438 7.92991C17.6768 7.99861 17.5882 8.03279 17.4994 8.03279Z" fill="#2B6128"/>
<path d="M19.2756 9.12134C19.2756 9.23003 19.2654 9.34077 19.2449 9.45015L19.0268 10.617C18.9964 10.7801 18.8535 10.8959 18.6911 10.8959C18.6785 10.8959 18.6659 10.8953 18.6532 10.8939C17.8937 10.8095 17.1062 10.8095 16.3468 10.8939C16.169 10.9137 16.006 10.7927 15.9732 10.617L15.7551 9.45049C15.6577 8.92959 15.7961 8.39741 16.1345 7.98999C16.4729 7.58257 16.9705 7.34912 17.5 7.34912C18.4792 7.34912 19.2756 8.14414 19.2756 9.12134Z" fill="#2B6128"/>
<path d="M28.235 21.5651H6.7647C6.57603 21.5651 6.4229 21.412 6.4229 21.2233C6.4229 18.479 7.43394 15.8462 9.26973 13.8094C11.0918 11.788 13.5784 10.5111 16.2714 10.2144C17.0805 10.1245 17.9189 10.1245 18.7283 10.2144C21.4209 10.5114 23.9075 11.788 25.7296 13.8094C27.5654 15.8462 28.5765 18.479 28.5765 21.2233C28.5768 21.412 28.4237 21.5651 28.235 21.5651ZM7.11196 20.8815H27.8877C27.7216 15.7259 23.8074 11.4623 18.6531 10.8939C17.8929 10.8095 17.1061 10.8095 16.3466 10.8939C11.1923 11.4623 7.27842 15.7259 7.11196 20.8815ZM9.05474 23.9379C8.90332 23.7745 8.69961 23.6843 8.48154 23.6843H6.59038C6.15083 23.6843 5.79297 24.0582 5.79297 24.5183V30.9167C5.79297 31.3764 6.15083 31.7507 6.59038 31.7507H8.48154C8.92144 31.7507 9.27896 31.3764 9.27896 30.9167L9.2793 24.5183C9.2793 24.3005 9.19966 24.0944 9.05474 23.9379ZM7.90356 25.29C7.90356 25.4927 7.73882 25.6575 7.53613 25.6575C7.33345 25.6575 7.1687 25.4927 7.1687 25.29C7.1687 25.0877 7.33345 24.9226 7.53613 24.9226C7.73882 24.9226 7.90356 25.0877 7.90356 25.29Z" fill="#2B6128"/>
<path d="M17.6044 30.8965H8.9375C8.84692 30.8965 8.75977 30.8606 8.69585 30.7963C8.63159 30.7321 8.5957 30.6453 8.5957 30.5547L8.59605 25.4277C8.59605 25.2391 8.74917 25.0859 8.93784 25.0859H9.58281C10.0924 25.0859 10.5826 24.8709 10.9278 24.4957C11.4019 23.9802 12.0755 23.6846 12.7759 23.6846H17.7812C18.554 23.6846 19.1825 24.3131 19.1825 25.0859C19.1825 25.8587 18.554 26.4873 17.7812 26.4873H14.9101C14.731 26.4873 14.5854 26.6329 14.5854 26.812C14.5854 26.9911 14.731 27.1367 14.9101 27.1367H18.7597C19.4789 27.1367 20.1936 26.9559 20.8262 26.6134L24.2165 24.7793C24.87 24.4259 25.6767 24.6235 26.0926 25.2391C26.5363 25.8953 26.3637 26.7912 25.7078 27.2355L22.5414 29.3813C21.0788 30.3725 19.3715 30.8965 17.6044 30.8965ZM9.27964 30.2129H17.6044C19.2345 30.2129 20.8091 29.7296 22.1585 28.8153L25.325 26.6695C25.6691 26.4364 25.7597 25.9664 25.527 25.6219C25.3085 25.2989 24.8854 25.195 24.5422 25.3806L21.152 27.2146C20.4198 27.6108 19.5927 27.82 18.7601 27.82H14.9097C14.3536 27.82 13.9014 27.3678 13.9014 26.8117C13.9014 26.2556 14.3536 25.8034 14.9097 25.8034H17.7808C18.1766 25.8034 18.4986 25.4814 18.4986 25.0856C18.4986 24.6898 18.1766 24.3678 17.7808 24.3678H12.7755C12.2659 24.3678 11.7758 24.5832 11.4306 24.9581C10.9565 25.4735 10.2828 25.7692 9.58247 25.7692H9.2793L9.27964 30.2129Z" fill="#2B6128"/>
<path d="M27.8221 24.368H7.17754C7.07911 24.368 6.9858 24.3256 6.92085 24.2518L4.45992 21.4491C4.37139 21.3483 4.3502 21.2047 4.40523 21.0827C4.4606 20.9603 4.58228 20.8817 4.71661 20.8817H30.283C30.4173 20.8817 30.539 20.9603 30.5944 21.0827C30.6498 21.205 30.6286 21.3483 30.5397 21.4491L28.0788 24.2518C28.0138 24.3256 27.9205 24.368 27.8221 24.368ZM7.33238 23.6844H27.6676L29.5283 21.5653H5.47164L7.33238 23.6844ZM10.0097 18.7783C9.97002 18.7783 9.92969 18.7714 9.89039 18.7567C9.71333 18.6908 9.62344 18.4942 9.68941 18.3172C10.4865 16.1765 12.151 14.4378 14.2568 13.5471C14.4308 13.4736 14.6311 13.5549 14.7049 13.7286C14.7784 13.9025 14.6971 14.1028 14.5234 14.1767C12.5902 14.9942 11.0621 16.5904 10.3306 18.5554C10.2787 18.6932 10.1484 18.7783 10.0097 18.7783Z" fill="#2B6128"/>
</svg>
