<svg width="20" height="25" viewBox="0 0 20 25" fill="none" xmlns="http://www.w3.org/2000/svg">
<path d="M17.1899 20.2656L18.1243 6.67578C18.1282 6.62161 18.1231 6.56701 18.1091 6.51548C18.0952 6.46395 18.0728 6.41663 18.0434 6.37655C18.0139 6.33646 17.9781 6.3045 17.9383 6.28271C17.8984 6.26092 17.8553 6.24978 17.8118 6.25H15.3118V3.51562C15.3112 3.41207 15.2788 3.31277 15.2212 3.23828L13.3462 0.894531C13.2866 0.82258 13.2072 0.782021 13.1243 0.78125H6.87432C6.79147 0.782021 6.71203 0.82258 6.65244 0.894531L4.77744 3.23828C4.71988 3.31277 4.68743 3.41207 4.68682 3.51562V6.25H2.18682C2.1433 6.24978 2.10023 6.26092 2.06035 6.28271C2.02048 6.3045 1.98469 6.33646 1.95527 6.37655C1.92586 6.41663 1.90346 6.46395 1.88952 6.51548C1.87558 6.56701 1.8704 6.62161 1.87432 6.67578L2.80869 20.2656L1.88994 23.7031C1.87444 23.7619 1.87033 23.8244 1.87794 23.8855C1.88554 23.9466 1.90465 24.0046 1.93369 24.0547C1.96213 24.1056 2.00002 24.1471 2.0441 24.1757C2.08819 24.2042 2.13716 24.219 2.18682 24.2188H17.8118C17.8615 24.219 17.9104 24.2042 17.9545 24.1757C17.9986 24.1471 18.0365 24.1056 18.0649 24.0547C18.094 24.0046 18.1131 23.9466 18.1207 23.8855C18.1283 23.8244 18.1242 23.7619 18.1087 23.7031L17.1899 20.2656ZM7.00244 1.5625H12.9962L14.2462 3.125H5.75244L7.00244 1.5625ZM14.6868 3.90625V6.25H13.4368V3.90625H14.6868ZM12.8118 3.90625V6.25H7.18682V3.90625H12.8118ZM5.31182 3.90625H6.56182V6.25H5.31182V3.90625ZM2.62119 23.4375L3.42119 20.4375C3.43424 20.3858 3.43954 20.3315 3.43682 20.2773L2.52744 7.03125H17.4712L16.5618 20.2773C16.5591 20.3315 16.5644 20.3858 16.5774 20.4375L17.3774 23.4375H2.62119Z" fill="#2B6128"/>
<path d="M14.6875 12.8906V12.1094C14.6863 11.1774 14.3897 10.284 13.8625 9.62505C13.3353 8.96606 12.6206 8.5952 11.875 8.59375H8.125C7.37943 8.5952 6.66474 8.96606 6.13754 9.62505C5.61034 10.284 5.31366 11.1774 5.3125 12.1094V12.8906C5.3125 12.9942 5.34542 13.0936 5.40403 13.1668C5.46263 13.2401 5.54212 13.2812 5.625 13.2812H5.73438C5.66302 13.4637 5.62562 13.6641 5.625 13.8672C5.62539 14.0493 5.65489 14.2296 5.71177 14.3973C5.76866 14.565 5.85178 14.7168 5.95625 14.8438C5.85178 14.9707 5.76866 15.1225 5.71177 15.2902C5.65489 15.4579 5.62539 15.6382 5.625 15.8203C5.62562 16.0234 5.66302 16.2238 5.73438 16.4062H5.625C5.54212 16.4062 5.46263 16.4474 5.40403 16.5207C5.34542 16.5939 5.3125 16.6933 5.3125 16.7969C5.31366 17.7288 5.61034 18.6222 6.13754 19.2812C6.66474 19.9402 7.37943 20.3111 8.125 20.3125H11.875C12.6206 20.3111 13.3353 19.9402 13.8625 19.2812C14.3897 18.6222 14.6863 17.7288 14.6875 16.7969C14.6875 16.6933 14.6546 16.5939 14.596 16.5207C14.5374 16.4474 14.4579 16.4062 14.375 16.4062H14.2656C14.337 16.2238 14.3744 16.0234 14.375 15.8203C14.3746 15.6382 14.3451 15.4579 14.2882 15.2902C14.2313 15.1225 14.1482 14.9707 14.0437 14.8438C14.1482 14.7168 14.2313 14.565 14.2882 14.3973C14.3451 14.2296 14.3746 14.0493 14.375 13.8672C14.3744 13.6641 14.337 13.4637 14.2656 13.2812H14.375C14.4579 13.2812 14.5374 13.2401 14.596 13.1668C14.6546 13.0936 14.6875 12.9942 14.6875 12.8906ZM11.875 19.5312H8.125C7.59912 19.5304 7.09103 19.2931 6.69345 18.8629C6.29588 18.4326 6.03534 17.838 5.95937 17.1875H10.9938C11.0577 17.4158 11.1769 17.6137 11.3348 17.7537C11.4927 17.8936 11.6814 17.9688 11.875 17.9688C12.0686 17.9688 12.2573 17.8936 12.4152 17.7537C12.5731 17.6137 12.6923 17.4158 12.7562 17.1875H14.0406C13.9647 17.838 13.7041 18.4326 13.3065 18.8629C12.909 19.2931 12.4009 19.5304 11.875 19.5312ZM13.2812 14.4531H12.5C12.4171 14.4531 12.3376 14.4943 12.279 14.5675C12.2204 14.6408 12.1875 14.7401 12.1875 14.8438V16.7969C12.1875 16.9005 12.1546 16.9998 12.096 17.0731C12.0374 17.1463 11.9579 17.1875 11.875 17.1875C11.7921 17.1875 11.7126 17.1463 11.654 17.0731C11.5954 16.9998 11.5625 16.9005 11.5625 16.7969V14.8438C11.5625 14.7401 11.5296 14.6408 11.471 14.5675C11.4124 14.4943 11.3329 14.4531 11.25 14.4531H10.3125C10.2296 14.4531 10.1501 14.4943 10.0915 14.5675C10.0329 14.6408 10 14.7401 10 14.8438C10 14.9474 9.96708 15.0467 9.90847 15.12C9.84987 15.1932 9.77038 15.2344 9.6875 15.2344C9.60462 15.2344 9.52513 15.1932 9.46653 15.12C9.40792 15.0467 9.375 14.9474 9.375 14.8438C9.375 14.7401 9.34208 14.6408 9.28347 14.5675C9.22487 14.4943 9.14538 14.4531 9.0625 14.4531H6.71875C6.59443 14.4531 6.4752 14.3914 6.38729 14.2815C6.29939 14.1716 6.25 14.0226 6.25 13.8672C6.25 13.7118 6.29939 13.5628 6.38729 13.4529C6.4752 13.343 6.59443 13.2812 6.71875 13.2812H13.2812C13.4056 13.2812 13.5248 13.343 13.6127 13.4529C13.7006 13.5628 13.75 13.7118 13.75 13.8672C13.75 14.0226 13.7006 14.1716 13.6127 14.2815C13.5248 14.3914 13.4056 14.4531 13.2812 14.4531ZM13.75 15.8203C13.75 15.9757 13.7006 16.1247 13.6127 16.2346C13.5248 16.3445 13.4056 16.4062 13.2812 16.4062H12.8125V15.2344H13.2812C13.4056 15.2344 13.5248 15.2961 13.6127 15.406C13.7006 15.5159 13.75 15.6649 13.75 15.8203ZM6.71875 15.2344H8.80312C8.86754 15.4633 8.98722 15.6615 9.14563 15.8018C9.30404 15.942 9.49338 16.0174 9.6875 16.0174C9.88162 16.0174 10.071 15.942 10.2294 15.8018C10.3878 15.6615 10.5075 15.4633 10.5719 15.2344H10.9375V16.4062H6.71875C6.59443 16.4062 6.4752 16.3445 6.38729 16.2346C6.29939 16.1247 6.25 15.9757 6.25 15.8203C6.25 15.6649 6.29939 15.5159 6.38729 15.406C6.4752 15.2961 6.59443 15.2344 6.71875 15.2344ZM14.0625 12.5H5.9375V12.1094C5.93816 11.3844 6.16884 10.6894 6.57893 10.1768C6.98903 9.66418 7.54504 9.37583 8.125 9.375H11.875C12.455 9.37583 13.011 9.66418 13.4211 10.1768C13.8312 10.6894 14.0618 11.3844 14.0625 12.1094V12.5Z" fill="#2B6128"/>
<path d="M8.125 10.1562H7.5V10.9375H8.125V10.1562Z" fill="#2B6128"/>
<path d="M9.0625 10.9375H8.4375V11.7188H9.0625V10.9375Z" fill="#2B6128"/>
<path d="M10.3125 10.1562H9.6875V10.9375H10.3125V10.1562Z" fill="#2B6128"/>
<path d="M11.25 10.9375H10.625V11.7188H11.25V10.9375Z" fill="#2B6128"/>
<path d="M12.5 10.1562H11.875V10.9375H12.5V10.1562Z" fill="#2B6128"/>
<path d="M13.4375 10.9375H12.8125V11.7188H13.4375V10.9375Z" fill="#2B6128"/>
</svg>
