<svg width="23" height="23" viewBox="0 0 23 23" fill="none" xmlns="http://www.w3.org/2000/svg">
<path d="M11.2109 9C13.6962 9 15.7109 6.98528 15.7109 4.5C15.7109 2.01472 13.6962 0 11.2109 0C8.72566 0 6.71094 2.01472 6.71094 4.5C6.71094 6.98528 8.72566 9 11.2109 9Z" fill="#2B6128"/>
<path d="M22.3553 19.4102C21.8885 17.2849 20.8181 15.3396 19.2728 13.8077C18.8977 13.4313 18.4912 13.0876 18.0578 12.7802C16.0838 11.2995 13.6778 10.5089 11.2103 10.5302C8.19312 10.5148 5.29225 11.6929 3.14027 13.8077C1.5949 15.3396 0.524552 17.2849 0.0577668 19.4102C-0.0233675 19.786 -0.0189848 20.1752 0.0705909 20.5491C0.160167 20.923 0.332644 21.272 0.575267 21.5702C0.826535 21.8748 1.14295 22.1192 1.50119 22.2854C1.85944 22.4515 2.2504 22.5352 2.64527 22.5302H19.7753C20.1713 22.5305 20.5623 22.4416 20.9193 22.2702C21.2764 22.0989 21.5903 21.8494 21.8378 21.5402C22.076 21.2455 22.246 20.9016 22.3355 20.5333C22.425 20.165 22.4317 19.7814 22.3553 19.4102Z" fill="#2B6128"/>
</svg>
