<svg width="21" height="21" viewBox="0 0 21 21" fill="none" xmlns="http://www.w3.org/2000/svg">
<path fill-rule="evenodd" clip-rule="evenodd" d="M14.3236 7.89595H3.20898C2.79232 7.89595 2.39648 8.06261 2.10482 8.35428C1.81315 8.64595 1.64648 9.04699 1.64648 9.45845C1.64745 9.78144 1.74799 10.0963 1.9344 10.36C2.12081 10.6238 2.38402 10.8237 2.68815 10.9324V11.573H1.70378C0.823568 11.573 0.0839844 12.323 0.0839844 13.2553C0.0996094 14.1824 0.839193 14.922 1.71419 14.9168H2.68815V17.5105C2.68815 19.3855 4.19857 20.9168 6.02148 20.9168H14.9798C16.8027 20.9168 18.3132 19.3803 18.3132 17.5105V14.9168H19.3079C20.1829 14.9116 20.9173 14.1616 20.9173 13.2345C20.9173 13.2189 20.9173 13.2501 20.9173 13.2345C20.9017 12.323 20.1725 11.547 19.3079 11.5418H18.3132V10.9324C18.6175 10.824 18.8809 10.6242 19.0674 10.3604C19.2538 10.0965 19.3542 9.78153 19.3548 9.45845C19.3548 9.04699 19.1882 8.64595 18.8965 8.35428C18.6048 8.06261 18.2038 7.89595 17.7923 7.89595H17.1152L18.6986 4.32824C19.0267 3.59907 18.7298 2.71366 18.0475 2.33866H18.0423C17.834 2.22407 17.5996 2.16678 17.36 2.16678C16.7402 2.16678 16.1777 2.56782 15.9642 3.1772L14.3236 7.89595ZM3.72982 11.0209V17.5105C3.72982 18.8074 4.76107 19.8751 6.02148 19.8751H14.9798C16.2402 19.8751 17.2715 18.8022 17.2715 17.5105V11.0209H3.72982ZM4.25065 15.1876V17.2657C4.25065 17.8178 4.4694 18.3543 4.86523 18.7449C5.25734 19.1377 5.78938 19.3588 6.3444 19.3595H7.38086C7.66732 19.3595 7.90169 19.1251 7.90169 18.8387C7.90169 18.5522 7.66732 18.3178 7.38086 18.3178H6.3444C6.06836 18.3178 5.79753 18.2084 5.60482 18.0105C5.4069 17.8126 5.29753 17.547 5.29753 17.271V15.1928C5.29753 14.9064 5.06315 14.672 4.77669 14.672C4.49023 14.672 4.25586 14.9064 4.25586 15.1928L4.25065 15.1876ZM12.584 12.0626C12.584 11.7762 12.3496 11.5418 12.0632 11.5418H8.93815C8.65169 11.5418 8.41732 11.7762 8.41732 12.0626V13.6251C8.41732 13.9116 8.65169 14.1459 8.93815 14.1459H12.0632C12.3496 14.1459 12.584 13.9116 12.584 13.6251V12.0626ZM18.3132 12.5834H19.3027C19.6204 12.5834 19.8704 12.9012 19.8757 13.2345C19.8757 13.573 19.6257 13.8699 19.3027 13.8751H18.3132V12.5834ZM2.68815 13.8699H1.70898C1.38607 13.8699 1.13607 13.5835 1.12565 13.2501C1.12565 12.9064 1.38086 12.6095 1.70378 12.6095H2.68815V13.8699ZM11.5423 12.5834V13.1043H9.45899V12.5834H11.5423ZM17.7923 9.97928H3.20898C3.06836 9.97928 2.93815 9.92199 2.83919 9.82824C2.74023 9.72928 2.68815 9.59907 2.68815 9.45845C2.68815 9.31782 2.74544 9.18762 2.83919 9.08866C2.88769 9.04015 2.94537 9.00181 3.00887 8.97587C3.07237 8.94994 3.1404 8.93693 3.20898 8.93762H17.7923C17.9329 8.93762 18.0632 8.99491 18.1621 9.08866C18.2611 9.18762 18.3132 9.31782 18.3132 9.45845C18.3132 9.59907 18.2559 9.72928 18.1621 9.82824C18.1136 9.87675 18.0559 9.91509 17.9924 9.94103C17.9289 9.96696 17.8609 9.97997 17.7923 9.97928ZM15.9746 7.89595L17.7454 3.90116C17.8496 3.66157 17.7715 3.37511 17.5475 3.25011C17.4898 3.2194 17.4254 3.2033 17.36 3.20324C17.1725 3.20324 17.0111 3.33345 16.9434 3.51574L15.4225 7.89074H15.9746V7.89595ZM10.2715 0.135531C10.2715 0.135531 9.19857 0.677198 8.97982 1.65636C8.83919 2.28136 9.00065 3.13553 10.1621 4.12512C10.8757 4.72928 11.0892 5.19282 11.0007 5.57303C10.8809 6.10949 10.2663 6.38553 10.2663 6.38553C10.2046 6.41553 10.1495 6.4574 10.1041 6.50875C10.0587 6.5601 10.0238 6.6199 10.0016 6.68474C9.97932 6.74958 9.97008 6.81818 9.97439 6.8866C9.9787 6.95502 9.99647 7.02191 10.0267 7.08345C10.0567 7.14509 10.0986 7.20021 10.1499 7.24563C10.2013 7.29105 10.2611 7.32589 10.3259 7.34815C10.3907 7.37041 10.4593 7.37965 10.5278 7.37534C10.5962 7.37103 10.6631 7.35325 10.7246 7.32303C10.7246 7.32303 11.7975 6.78136 12.0163 5.8022C12.1569 5.1772 11.9954 4.31782 10.834 3.33345C10.1204 2.72928 9.9069 2.27095 9.99544 1.88553C10.1152 1.34907 10.7246 1.07824 10.7246 1.07824C10.7863 1.04824 10.8414 1.00637 10.8868 0.955022C10.9322 0.903676 10.9671 0.843868 10.9893 0.779027C11.0116 0.714187 11.0208 0.64559 11.0165 0.577171C11.0122 0.508752 10.9944 0.441857 10.9642 0.380323C10.9342 0.318681 10.8923 0.263567 10.841 0.218143C10.7896 0.172719 10.7298 0.137879 10.665 0.11562C10.6001 0.0933613 10.5315 0.0841224 10.4631 0.088433C10.3947 0.0927436 10.3278 0.110519 10.2663 0.14074L10.2715 0.135531ZM13.4017 1.19282C13.4017 1.19282 12.7038 1.59386 12.5579 2.32303C12.4694 2.77616 12.5579 3.38553 13.2871 4.09907C13.6465 4.44803 13.7663 4.71366 13.7246 4.93761C13.6725 5.21366 13.3965 5.35949 13.3965 5.35949C13.2842 5.43111 13.2036 5.54304 13.1713 5.67225C13.139 5.80147 13.1574 5.93815 13.2227 6.05421C13.2881 6.17026 13.3954 6.25686 13.5227 6.29621C13.65 6.33555 13.7874 6.32465 13.9069 6.26574C13.9069 6.26574 14.6048 5.8647 14.7454 5.13032C14.834 4.6772 14.7454 4.06782 14.0163 3.35428C13.6621 3.00532 13.5371 2.7397 13.5788 2.52095C13.6309 2.24491 13.9069 2.09907 13.9069 2.09907C14.1569 1.95845 14.2454 1.64074 14.11 1.39074C13.9694 1.14074 13.6517 1.0522 13.4017 1.18761V1.19282ZM7.05794 1.19803C7.05794 1.19803 6.38086 1.59387 6.24544 2.32824C6.16211 2.77616 6.25065 3.38553 6.94857 4.09386C7.29232 4.44803 7.41211 4.71886 7.37044 4.94282C7.31836 5.21886 7.05794 5.3647 7.05794 5.3647C6.80794 5.51053 6.72461 5.82824 6.87044 6.07824C7.01628 6.32824 7.33398 6.41157 7.58398 6.26574C7.58398 6.26574 8.26107 5.8647 8.39648 5.13032C8.47982 4.68241 8.39128 4.07303 7.69336 3.3647C7.34961 3.01053 7.22982 2.7397 7.27148 2.52095C7.32357 2.24491 7.58398 2.09907 7.58398 2.09907C7.83398 1.95324 7.91732 1.63553 7.77148 1.38553C7.73712 1.32618 7.69136 1.27422 7.63683 1.23264C7.58229 1.19105 7.52007 1.16067 7.45375 1.14324C7.38742 1.12581 7.3183 1.12168 7.25037 1.13108C7.18244 1.14049 7.11704 1.16324 7.05794 1.19803Z" fill="#2B6128"/>
</svg>
