<svg width="22" height="23" viewBox="0 0 22 23" fill="none" xmlns="http://www.w3.org/2000/svg">
<path d="M5.03125 6.03125C5.03125 5.82405 5.11356 5.62534 5.26007 5.47882C5.40659 5.33231 5.6053 5.25 5.8125 5.25H8.9375C9.1447 5.25 9.34341 5.33231 9.48993 5.47882C9.63644 5.62534 9.71875 5.82405 9.71875 6.03125C9.71875 6.23845 9.63644 6.43716 9.48993 6.58368C9.34341 6.73019 9.1447 6.8125 8.9375 6.8125H5.8125C5.6053 6.8125 5.40659 6.73019 5.26007 6.58368C5.11356 6.43716 5.03125 6.23845 5.03125 6.03125ZM11.2812 8.375H5.8125C5.6053 8.375 5.40659 8.45731 5.26007 8.60382C5.11356 8.75034 5.03125 8.94905 5.03125 9.15625C5.03125 9.36345 5.11356 9.56216 5.26007 9.70868C5.40659 9.85519 5.6053 9.9375 5.8125 9.9375H11.2812C11.4885 9.9375 11.6872 9.85519 11.8337 9.70868C11.9802 9.56216 12.0625 9.36345 12.0625 9.15625C12.0625 8.94905 11.9802 8.75034 11.8337 8.60382C11.6872 8.45731 11.4885 8.375 11.2812 8.375ZM11.2812 11.5H5.8125C5.6053 11.5 5.40659 11.5823 5.26007 11.7288C5.11356 11.8753 5.03125 12.074 5.03125 12.2812C5.03125 12.4885 5.11356 12.6872 5.26007 12.8337C5.40659 12.9802 5.6053 13.0625 5.8125 13.0625H11.2812C11.4885 13.0625 11.6872 12.9802 11.8337 12.8337C11.9802 12.6872 12.0625 12.4885 12.0625 12.2812C12.0625 12.074 11.9802 11.8753 11.8337 11.7288C11.6872 11.5823 11.4885 11.5 11.2812 11.5ZM21.4375 5.25C21.4395 6.00045 21.2608 6.74035 20.9165 7.40716C20.5722 8.07397 20.0724 8.6481 19.4594 9.08103C18.8465 9.51395 18.1383 9.79294 17.3947 9.89442C16.6511 9.9959 15.8941 9.91689 15.1875 9.66406V20.0938C15.1875 20.7154 14.9406 21.3115 14.501 21.751C14.0615 22.1906 13.4654 22.4375 12.8438 22.4375H2.6875C2.0659 22.4375 1.46976 22.1906 1.03022 21.751C0.59068 21.3115 0.34375 20.7154 0.34375 20.0938V18.5312C0.34375 18.324 0.42606 18.1253 0.572573 17.9788C0.719086 17.8323 0.9178 17.75 1.125 17.75H1.90625V3.6875C1.90625 2.8587 2.23549 2.06384 2.82154 1.47779C3.40759 0.89174 4.20245 0.5625 5.03125 0.5625H14.4062C14.5294 0.563666 14.6505 0.594441 14.7593 0.652229C14.8681 0.710017 14.9613 0.793122 15.0312 0.894531C15.7415 0.612175 16.5102 0.50816 17.27 0.591584C18.0298 0.675007 18.7575 0.943328 19.3896 1.37308C20.0217 1.80283 20.5389 2.38091 20.8959 3.05676C21.2529 3.73262 21.4388 4.48565 21.4375 5.25ZM2.6875 20.875H10.6438C10.5512 20.6248 10.5026 20.3605 10.5 20.0938V19.3125H1.90625V20.0938C1.90625 20.301 1.98856 20.4997 2.13507 20.6462C2.28159 20.7927 2.4803 20.875 2.6875 20.875ZM13.625 8.73438C13.1654 8.32526 12.7914 7.82924 12.5244 7.27491C12.2574 6.72057 12.1027 6.11888 12.0693 5.50451C12.0359 4.89013 12.1244 4.27522 12.3297 3.6952C12.5351 3.11518 12.8531 2.58153 13.2656 2.125H5.03125C4.61685 2.125 4.21942 2.28962 3.9264 2.58265C3.63337 2.87567 3.46875 3.2731 3.46875 3.6875V17.75H11.2812C11.4885 17.75 11.6872 17.8323 11.8337 17.9788C11.9802 18.1253 12.0625 18.324 12.0625 18.5312V20.0938C12.0625 20.301 12.1448 20.4997 12.2913 20.6462C12.4378 20.7927 12.6365 20.875 12.8438 20.875C13.051 20.875 13.2497 20.7927 13.3962 20.6462C13.5427 20.4997 13.625 20.301 13.625 20.0938V8.73438ZM19.875 5.25C19.875 4.63193 19.6917 4.02775 19.3483 3.51384C19.005 2.99994 18.5169 2.5994 17.9459 2.36288C17.3749 2.12635 16.7465 2.06447 16.1403 2.18505C15.5342 2.30562 14.9773 2.60325 14.5403 3.04029C14.1033 3.47733 13.8056 4.03415 13.685 4.64034C13.5645 5.24653 13.6264 5.87487 13.8629 6.44589C14.0994 7.01691 14.4999 7.50496 15.0138 7.84834C15.5277 8.19172 16.1319 8.375 16.75 8.375C17.5788 8.375 18.3737 8.04576 18.9597 7.45971C19.5458 6.87366 19.875 6.0788 19.875 5.25ZM18.3125 4.46875H17.5312C17.5312 4.26155 17.4489 4.06284 17.3024 3.91632C17.1559 3.76981 16.9572 3.6875 16.75 3.6875C16.5428 3.6875 16.3441 3.76981 16.1976 3.91632C16.0511 4.06284 15.9688 4.26155 15.9688 4.46875V5.25C15.9688 5.4572 16.0511 5.65591 16.1976 5.80243C16.3441 5.94894 16.5428 6.03125 16.75 6.03125H18.3125C18.5197 6.03125 18.7184 5.94894 18.8649 5.80243C19.0114 5.65591 19.0938 5.4572 19.0938 5.25C19.0938 5.0428 19.0114 4.84409 18.8649 4.69757C18.7184 4.55106 18.5197 4.46875 18.3125 4.46875Z" fill="#2B6128"/>
</svg>
