<svg width="25" height="25" viewBox="0 0 25 25" fill="none" xmlns="http://www.w3.org/2000/svg">
<path d="M18.8175 1.25795L18.9623 1.54695L20.0542 4.45086C20.14 4.67954 20.3205 4.85998 20.5491 4.94578L23.3528 5.99763C24.5832 6.45921 25.2443 7.77392 24.9165 9.01781L24.8376 9.26537L23.5332 12.15C23.4322 12.3724 23.4322 12.6276 23.5332 12.85L24.772 15.5762C25.3156 16.7726 24.8534 18.1697 23.742 18.8175L23.453 18.9623L20.5491 20.0542C20.3205 20.14 20.14 20.3205 20.0542 20.5491L19.0024 23.3528C18.5408 24.5832 17.2261 25.2443 15.9822 24.9165L15.7346 24.8376L12.85 23.5332C12.6276 23.4322 12.3724 23.4322 12.15 23.5332L9.42376 24.772C8.22739 25.3156 6.83025 24.8534 6.18251 23.742L6.03775 23.453L4.94578 20.5491C4.85998 20.3205 4.67954 20.14 4.45086 20.0542L1.64717 19.0024C0.41683 18.5408 -0.24432 17.2261 0.0835318 15.9822L0.162413 15.7346L1.46676 12.85C1.56779 12.6276 1.56779 12.3724 1.46676 12.15L0.228022 9.42376C-0.315573 8.22739 0.14656 6.83025 1.25795 6.18251L1.54695 6.03775L4.45086 4.94578C4.67954 4.85998 4.85998 4.67954 4.94578 4.45086L5.99763 1.64717C6.45921 0.41683 7.77392 -0.24432 9.01781 0.0835318L9.26537 0.162413L12.15 1.46676C12.3724 1.56779 12.6276 1.56779 12.85 1.46676L15.5762 0.228022C16.7726 -0.315573 18.1697 0.14656 18.8175 1.25795ZM16.599 8.15434L10.5645 15.0509L8.36249 12.8489C8.03211 12.5186 7.49646 12.5186 7.16608 12.8489C6.8357 13.1793 6.8357 13.715 7.16608 14.0454L10.0075 16.8868C10.3535 17.2328 10.9201 17.214 11.2424 16.8457L17.8724 9.26852C18.1801 8.91689 18.1444 8.38242 17.7928 8.07475C17.4412 7.76708 16.9067 7.80271 16.599 8.15434Z" fill="#2B6128"/>
</svg>
